<svg width="24" height="24" viewBox="0 0 24 24" fill="none" xmlns="http://www.w3.org/2000/svg">
<path d="M22 16.92V19.92C22.0001 20.1986 21.9402 20.4743 21.8241 20.7294C21.708 20.9846 21.5383 21.2137 21.3259 21.4025C21.1136 21.5913 20.8633 21.7356 20.5912 21.8262C20.3191 21.9169 20.0313 21.9519 19.746 21.929C16.9189 21.6219 14.1926 20.6545 11.773 19.096C9.53034 17.6188 7.61877 15.7072 6.1415 13.4646C4.58021 11.0401 3.61118 8.30825 3.30601 5.47601C3.28318 5.19069 3.31821 4.90303 3.4089 4.63098C3.49959 4.35894 3.64391 4.10862 3.83272 3.89626C4.02153 3.6839 4.25061 3.5142 4.50577 3.39808C4.76093 3.28197 5.03664 3.22197 5.31501 3.22201H8.31501C8.80211 3.21855 9.27375 3.39282 9.64653 3.71409C10.0193 4.03536 10.2736 4.48684 10.364 4.98801C10.5332 5.92617 10.8242 6.84067 11.231 7.71401C11.3932 8.05835 11.4111 8.44853 11.282 8.80551C11.1528 9.16248 10.8863 9.45938 10.536 9.63601L9.26601 10.271C10.6865 12.7709 12.7481 14.8325 15.248 16.253L15.883 14.983C16.0596 14.6327 16.3565 14.3662 16.7135 14.2371C17.0705 14.1079 17.4607 14.1258 17.805 14.288C18.6783 14.6948 19.5928 14.9859 20.531 15.155C21.0336 15.2458 21.4861 15.5015 21.8066 15.8756C22.1272 16.2497 22.2995 16.7229 22.295 17.211V16.92H22Z" stroke="currentColor" stroke-width="1.5" stroke-linecap="round" stroke-linejoin="round"/>
</svg>
