<svg width="24" height="24" viewBox="0 0 24 24" fill="none" xmlns="http://www.w3.org/2000/svg">
<path d="M12 15C13.6569 15 15 13.6569 15 12C15 10.3431 13.6569 9 12 9C10.3431 9 9 10.3431 9 12C9 13.6569 10.3431 15 12 15Z" stroke="currentColor" stroke-width="1.5" stroke-linecap="round" stroke-linejoin="round"/>
<path d="M19.4 15C19.6387 14.5422 20.3959 14.3644 20.8406 14.618C21.464 14.9734 21.6841 15.7661 21.3286 16.3895L20.3286 18.1215C19.9732 18.7449 19.1805 18.965 18.5571 18.6095C18.1124 18.3559 17.9345 17.7946 18.0673 17.3117C16.5684 18.4981 14.7171 19.2625 12.75 19.4627V19.75C12.75 20.4404 12.1904 21 11.5 21H10.5C9.80964 21 9.25 20.4404 9.25 19.75V19.4627C7.28292 19.2625 5.43162 18.4981 3.9327 17.3117C4.06548 17.7946 3.88764 18.3559 3.44293 18.6095C2.81951 18.965 2.02678 18.7449 1.67135 18.1215L0.671355 16.3895C0.315926 15.7661 0.536006 14.9734 1.15942 14.618C1.60413 14.3644 2.36132 14.5422 2.6 15C3.38559 13.1118 4.79374 11.5458 6.57797 10.5157C6.31294 10.3804 5.94056 10.2796 5.5 10.2796C4.80964 10.2796 4.25 9.71994 4.25 9.02959V8.02959C4.25 7.33924 4.80964 6.77959 5.5 6.77959C6.01452 6.77959 6.22158 6.58661 6.30739 6.44755C5.83226 5.92212 5.51868 5.16335 5.75942 4.38196C5.97292 3.68909 6.71185 3.32174 7.42065 3.51167L9.35269 4.02928C10.0615 4.21921 10.4786 4.96013 10.2651 5.653C10.1128 6.14728 9.68984 6.47192 9.22744 6.51614C10.0401 6.26532 10.8988 6.13031 11.7857 6.13031C13.8824 6.13031 15.8239 6.78775 17.4116 7.90261C17.6534 7.4988 18.1506 7.2796 18.6366 7.40871C19.3308 7.59316 19.7391 8.35623 19.5492 9.06649L19.284 10.0583C19.0941 10.7686 18.3779 11.1718 17.6837 10.9874C17.1895 10.8561 16.7324 10.4571 16.5921 10.0076C18.1884 11.1118 19.2974 12.9515 19.4 15Z" stroke="currentColor" stroke-width="1.5" stroke-linecap="round" stroke-linejoin="round"/>
</svg>
